# xmcd CD database file
#
# Track frame offsets:
#	150
#	29057
#	52585
#	81677
#	107145
#	150942
#	182120
#	198645
#	231957
#
# Disc length: 3440 seconds
#
# Revision: 4
# Processed by: cddbd v1.5PL3 Copyright (c) Steve Scherf et al.
# Submitted via: CDex 1.50beta9
#
DISCID=740d6e09
DTITLE=Everon - Paradoxes
DYEAR=1994
DGENRE=Heavy Metal
TTITLE0=Face the World
TTITLE1=Private Warriors
TTITLE2=Circles
TTITLE3=Shadowboxing
TTITLE4=Paradoxes
TTITLE5=Reflections
TTITLE6=It almost turned out right
TTITLE7=Marching out
TTITLE8=Open Windows
EXTD=YEAR: 1994
EXTT0=
EXTT1=
EXTT2=
EXTT3=
EXTT4=
EXTT5=
EXTT6=
EXTT7=
EXTT8=
PLAYORDER=
